<svg width="600" height="600" viewBox="0 0 600 600" fill="none" xmlns="http://www.w3.org/2000/svg">
<g filter="url(#filter0_d_2_27)">
<path d="M486.545 500.091L487.455 475.091L466.318 488.5L460.864 478.955L483.136 467.364L460.864 455.773L466.318 446.227L487.455 459.636L486.545 434.636H497.455L496.545 459.636L517.682 446.227L523.136 455.773L500.864 467.364L523.136 478.955L517.682 488.5L496.545 475.091L497.455 500.091H486.545ZM585.409 429.182L547.909 568.5H535.636L573.136 429.182H585.409Z" fill="#6A9953"/>
<path d="M486.545 500.091L485.546 500.055L485.508 501.091H486.545V500.091ZM487.455 475.091L488.454 475.127L488.523 473.229L486.919 474.246L487.455 475.091ZM466.318 488.5L465.45 488.996L465.97 489.905L466.854 489.344L466.318 488.5ZM460.864 478.955L460.402 478.067L459.479 478.548L459.995 479.451L460.864 478.955ZM483.136 467.364L483.598 468.251L485.303 467.364L483.598 466.477L483.136 467.364ZM460.864 455.773L459.995 455.277L459.479 456.18L460.402 456.66L460.864 455.773ZM466.318 446.227L466.854 445.383L465.97 444.822L465.45 445.731L466.318 446.227ZM487.455 459.636L486.919 460.481L488.523 461.498L488.454 459.6L487.455 459.636ZM486.545 434.636V433.636H485.508L485.546 434.673L486.545 434.636ZM497.455 434.636L498.454 434.673L498.492 433.636H497.455V434.636ZM496.545 459.636L495.546 459.6L495.477 461.498L497.081 460.481L496.545 459.636ZM517.682 446.227L518.55 445.731L518.03 444.822L517.146 445.383L517.682 446.227ZM523.136 455.773L523.598 456.66L524.521 456.18L524.005 455.277L523.136 455.773ZM500.864 467.364L500.402 466.477L498.697 467.364L500.402 468.251L500.864 467.364ZM523.136 478.955L524.005 479.451L524.521 478.548L523.598 478.067L523.136 478.955ZM517.682 488.5L517.146 489.344L518.03 489.905L518.55 488.996L517.682 488.5ZM496.545 475.091L497.081 474.246L495.477 473.229L495.546 475.127L496.545 475.091ZM497.455 500.091V501.091H498.492L498.454 500.055L497.455 500.091ZM487.545 500.127L488.454 475.127L486.455 475.055L485.546 500.055L487.545 500.127ZM486.919 474.246L465.782 487.656L466.854 489.344L487.99 475.935L486.919 474.246ZM467.186 488.004L461.732 478.458L459.995 479.451L465.45 488.996L467.186 488.004ZM461.325 479.842L483.598 468.251L482.675 466.477L460.402 478.067L461.325 479.842ZM483.598 466.477L461.325 454.886L460.402 456.66L482.675 468.251L483.598 466.477ZM461.732 456.269L467.186 446.723L465.45 445.731L459.995 455.277L461.732 456.269ZM465.782 447.072L486.919 460.481L487.99 458.792L466.854 445.383L465.782 447.072ZM488.454 459.6L487.545 434.6L485.546 434.673L486.455 459.673L488.454 459.6ZM486.545 435.636H497.455V433.636H486.545V435.636ZM496.455 434.6L495.546 459.6L497.545 459.673L498.454 434.673L496.455 434.6ZM497.081 460.481L518.218 447.072L517.146 445.383L496.01 458.792L497.081 460.481ZM516.814 446.723L522.268 456.269L524.005 455.277L518.55 445.731L516.814 446.723ZM522.675 454.886L500.402 466.477L501.325 468.251L523.598 456.66L522.675 454.886ZM500.402 468.251L522.675 479.842L523.598 478.067L501.325 466.477L500.402 468.251ZM522.268 478.458L516.814 488.004L518.55 488.996L524.005 479.451L522.268 478.458ZM518.218 487.656L497.081 474.246L496.01 475.935L517.146 489.344L518.218 487.656ZM495.546 475.127L496.455 500.127L498.454 500.055L497.545 475.055L495.546 475.127ZM497.455 499.091H486.545V501.091H497.455V499.091ZM585.409 429.182L586.375 429.442L586.714 428.182H585.409V429.182ZM547.909 568.5V569.5H548.676L548.875 568.76L547.909 568.5ZM535.636 568.5L534.671 568.24L534.332 569.5H535.636V568.5ZM573.136 429.182V428.182H572.37L572.171 428.922L573.136 429.182ZM584.443 428.922L546.943 568.24L548.875 568.76L586.375 429.442L584.443 428.922ZM547.909 567.5H535.636V569.5H547.909V567.5ZM536.602 568.76L574.102 429.442L572.171 428.922L534.671 568.24L536.602 568.76ZM573.136 430.182H585.409V428.182H573.136V430.182Z" fill="black"/>
</g>
<g filter="url(#filter1_d_2_27)">
<path d="M63.4091 43.1818L25.9091 182.5H13.6364L51.1364 43.1818H63.4091ZM101.577 114.091L102.486 89.0909L81.3494 102.5L75.8949 92.9545L98.1676 81.3636L75.8949 69.7727L81.3494 60.2273L102.486 73.6364L101.577 48.6364H112.486L111.577 73.6364L132.713 60.2273L138.168 69.7727L115.895 81.3636L138.168 92.9545L132.713 102.5L111.577 89.0909L112.486 114.091H101.577Z" fill="#6A9953"/>
<path d="M63.4091 43.1818L64.3747 43.4417L64.7139 42.1818H63.4091V43.1818ZM25.9091 182.5V183.5H26.6755L26.8747 182.76L25.9091 182.5ZM13.6364 182.5L12.6707 182.24L12.3316 183.5H13.6364V182.5ZM51.1364 43.1818V42.1818H50.3699L50.1707 42.9219L51.1364 43.1818ZM62.4435 42.9219L24.9435 182.24L26.8747 182.76L64.3747 43.4417L62.4435 42.9219ZM25.9091 181.5H13.6364V183.5H25.9091V181.5ZM14.602 182.76L52.102 43.4417L50.1707 42.9219L12.6707 182.24L14.602 182.76ZM51.1364 44.1818H63.4091V42.1818H51.1364V44.1818ZM101.577 114.091L100.577 114.055L100.54 115.091H101.577V114.091ZM102.486 89.0909L103.485 89.1272L103.554 87.2289L101.95 88.2465L102.486 89.0909ZM81.3494 102.5L80.4812 102.996L81.0008 103.905L81.8851 103.344L81.3494 102.5ZM75.8949 92.9545L75.4333 92.0675L74.5106 92.5476L75.0266 93.4507L75.8949 92.9545ZM98.1676 81.3636L98.6292 82.2507L100.334 81.3636L98.6292 80.4766L98.1676 81.3636ZM75.8949 69.7727L75.0266 69.2766L74.5106 70.1796L75.4333 70.6598L75.8949 69.7727ZM81.3494 60.2273L81.8851 59.3829L81.0008 58.8218L80.4812 59.7311L81.3494 60.2273ZM102.486 73.6364L101.95 74.4808L103.554 75.4984L103.485 73.6L102.486 73.6364ZM101.577 48.6364V47.6364H100.54L100.577 48.6727L101.577 48.6364ZM112.486 48.6364L113.485 48.6727L113.523 47.6364H112.486V48.6364ZM111.577 73.6364L110.577 73.6L110.508 75.4984L112.112 74.4808L111.577 73.6364ZM132.713 60.2273L133.581 59.7311L133.062 58.8218L132.177 59.3829L132.713 60.2273ZM138.168 69.7727L138.629 70.6598L139.552 70.1796L139.036 69.2766L138.168 69.7727ZM115.895 81.3636L115.433 80.4766L113.729 81.3636L115.433 82.2507L115.895 81.3636ZM138.168 92.9545L139.036 93.4507L139.552 92.5476L138.629 92.0675L138.168 92.9545ZM132.713 102.5L132.177 103.344L133.062 103.905L133.581 102.996L132.713 102.5ZM111.577 89.0909L112.112 88.2465L110.508 87.2289L110.577 89.1272L111.577 89.0909ZM112.486 114.091V115.091H113.523L113.485 114.055L112.486 114.091ZM102.576 114.127L103.485 89.1272L101.486 89.0546L100.577 114.055L102.576 114.127ZM101.95 88.2465L80.8137 101.656L81.8851 103.344L103.021 89.9353L101.95 88.2465ZM82.2177 102.004L76.7631 92.4584L75.0266 93.4507L80.4812 102.996L82.2177 102.004ZM76.3565 93.8416L98.6292 82.2507L97.706 80.4766L75.4333 92.0675L76.3565 93.8416ZM98.6292 80.4766L76.3565 68.8857L75.4333 70.6598L97.706 82.2507L98.6292 80.4766ZM76.7631 70.2689L82.2177 60.7234L80.4812 59.7311L75.0266 69.2766L76.7631 70.2689ZM80.8137 61.0717L101.95 74.4808L103.021 72.792L81.8851 59.3829L80.8137 61.0717ZM103.485 73.6L102.576 48.6L100.577 48.6727L101.486 73.6727L103.485 73.6ZM101.577 49.6364H112.486V47.6364H101.577V49.6364ZM111.486 48.6L110.577 73.6L112.576 73.6727L113.485 48.6727L111.486 48.6ZM112.112 74.4808L133.249 61.0717L132.177 59.3829L111.041 72.792L112.112 74.4808ZM131.845 60.7234L137.299 70.2689L139.036 69.2766L133.581 59.7311L131.845 60.7234ZM137.706 68.8857L115.433 80.4766L116.357 82.2507L138.629 70.6598L137.706 68.8857ZM115.433 82.2507L137.706 93.8416L138.629 92.0675L116.357 80.4766L115.433 82.2507ZM137.299 92.4584L131.845 102.004L133.581 102.996L139.036 93.4507L137.299 92.4584ZM133.249 101.656L112.112 88.2465L111.041 89.9353L132.177 103.344L133.249 101.656ZM110.577 89.1272L111.486 114.127L113.485 114.055L112.576 89.0546L110.577 89.1272ZM112.486 113.091H101.577V115.091H112.486V113.091Z" fill="black"/>
</g>
<g filter="url(#filter2_d_2_27)">
<path d="M105.828 244V150.909H168.556V167.136H125.51V189.318H165.328V205.545H125.51V227.773H168.738V244H105.828ZM235.983 177.682C235.62 174.015 234.059 171.167 231.302 169.136C228.544 167.106 224.802 166.091 220.074 166.091C216.862 166.091 214.15 166.545 211.938 167.455C209.726 168.333 208.029 169.561 206.847 171.136C205.696 172.712 205.12 174.5 205.12 176.5C205.059 178.167 205.408 179.621 206.165 180.864C206.953 182.106 208.029 183.182 209.393 184.091C210.756 184.97 212.332 185.742 214.12 186.409C215.908 187.045 217.817 187.591 219.847 188.045L228.211 190.045C232.271 190.955 235.999 192.167 239.393 193.682C242.786 195.197 245.726 197.061 248.211 199.273C250.696 201.485 252.62 204.091 253.983 207.091C255.377 210.091 256.089 213.53 256.12 217.409C256.089 223.106 254.635 228.045 251.756 232.227C248.908 236.379 244.786 239.606 239.393 241.909C234.029 244.182 227.559 245.318 219.983 245.318C212.468 245.318 205.923 244.167 200.347 241.864C194.802 239.561 190.468 236.152 187.347 231.636C184.256 227.091 182.635 221.47 182.483 214.773H201.529C201.741 217.894 202.635 220.5 204.211 222.591C205.817 224.652 207.953 226.212 210.62 227.273C213.317 228.303 216.362 228.818 219.756 228.818C223.089 228.818 225.983 228.333 228.438 227.364C230.923 226.394 232.847 225.045 234.211 223.318C235.574 221.591 236.256 219.606 236.256 217.364C236.256 215.273 235.635 213.515 234.393 212.091C233.18 210.667 231.393 209.455 229.029 208.455C226.696 207.455 223.832 206.545 220.438 205.727L210.302 203.182C202.453 201.273 196.256 198.288 191.711 194.227C187.165 190.167 184.908 184.697 184.938 177.818C184.908 172.182 186.408 167.258 189.438 163.045C192.499 158.833 196.696 155.545 202.029 153.182C207.362 150.818 213.423 149.636 220.211 149.636C227.12 149.636 233.15 150.818 238.302 153.182C243.483 155.545 247.514 158.833 250.393 163.045C253.271 167.258 254.756 172.136 254.847 177.682H235.983ZM270.638 244V150.909H290.32V227.773H330.229V244H270.638ZM344.18 244V174.182H363.543V244H344.18ZM353.907 165.182C351.028 165.182 348.559 164.227 346.498 162.318C344.468 160.379 343.453 158.061 343.453 155.364C343.453 152.697 344.468 150.409 346.498 148.5C348.559 146.561 351.028 145.591 353.907 145.591C356.786 145.591 359.24 146.561 361.271 148.5C363.331 150.409 364.362 152.697 364.362 155.364C364.362 158.061 363.331 160.379 361.271 162.318C359.24 164.227 356.786 165.182 353.907 165.182ZM399.698 203.636V244H380.335V174.182H398.789V186.5H399.607C401.153 182.439 403.744 179.227 407.38 176.864C411.017 174.47 415.426 173.273 420.607 173.273C425.456 173.273 429.683 174.333 433.289 176.455C436.895 178.576 439.698 181.606 441.698 185.545C443.698 189.455 444.698 194.121 444.698 199.545V244H425.335V203C425.365 198.727 424.274 195.394 422.062 193C419.85 190.576 416.804 189.364 412.926 189.364C410.32 189.364 408.017 189.924 406.017 191.045C404.047 192.167 402.501 193.803 401.38 195.955C400.289 198.076 399.729 200.636 399.698 203.636ZM498.376 174.182V188.727H456.331V174.182H498.376ZM465.876 157.455H485.24V222.545C485.24 224.333 485.513 225.727 486.058 226.727C486.603 227.697 487.361 228.379 488.331 228.773C489.331 229.167 490.482 229.364 491.785 229.364C492.694 229.364 493.603 229.288 494.513 229.136C495.422 228.955 496.119 228.818 496.603 228.727L499.649 243.136C498.679 243.439 497.316 243.788 495.558 244.182C493.8 244.606 491.664 244.864 489.149 244.955C484.482 245.136 480.391 244.515 476.876 243.091C473.391 241.667 470.679 239.455 468.74 236.455C466.8 233.455 465.846 229.667 465.876 225.091V157.455ZM104.313 399H71.3134V305.909H104.586C113.95 305.909 122.01 307.773 128.768 311.5C135.526 315.197 140.723 320.515 144.359 327.455C148.026 334.394 149.859 342.697 149.859 352.364C149.859 362.061 148.026 370.394 144.359 377.364C140.723 384.333 135.495 389.682 128.677 393.409C121.889 397.136 113.768 399 104.313 399ZM90.9952 382.136H103.495C109.313 382.136 114.207 381.106 118.177 379.045C122.177 376.955 125.177 373.727 127.177 369.364C129.207 364.97 130.223 359.303 130.223 352.364C130.223 345.485 129.207 339.864 127.177 335.5C125.177 331.136 122.192 327.924 118.223 325.864C114.253 323.803 109.359 322.773 103.541 322.773H90.9952V382.136ZM165.355 399V329.182H184.718V399H165.355ZM175.082 320.182C172.203 320.182 169.734 319.227 167.673 317.318C165.643 315.379 164.628 313.061 164.628 310.364C164.628 307.697 165.643 305.409 167.673 303.5C169.734 301.561 172.203 300.591 175.082 300.591C177.961 300.591 180.415 301.561 182.446 303.5C184.506 305.409 185.537 307.697 185.537 310.364C185.537 313.061 184.506 315.379 182.446 317.318C180.415 319.227 177.961 320.182 175.082 320.182ZM259.601 349.091L241.873 350.182C241.57 348.667 240.919 347.303 239.919 346.091C238.919 344.848 237.601 343.864 235.964 343.136C234.358 342.379 232.434 342 230.192 342C227.192 342 224.661 342.636 222.601 343.909C220.54 345.152 219.51 346.818 219.51 348.909C219.51 350.576 220.176 351.985 221.51 353.136C222.843 354.288 225.131 355.212 228.373 355.909L241.01 358.455C247.798 359.848 252.858 362.091 256.192 365.182C259.525 368.273 261.192 372.333 261.192 377.364C261.192 381.939 259.843 385.955 257.146 389.409C254.479 392.864 250.813 395.561 246.146 397.5C241.51 399.409 236.161 400.364 230.101 400.364C220.858 400.364 213.495 398.439 208.01 394.591C202.555 390.712 199.358 385.439 198.419 378.773L217.464 377.773C218.04 380.591 219.434 382.742 221.646 384.227C223.858 385.682 226.692 386.409 230.146 386.409C233.54 386.409 236.267 385.758 238.328 384.455C240.419 383.121 241.479 381.409 241.51 379.318C241.479 377.561 240.737 376.121 239.283 375C237.828 373.848 235.586 372.97 232.555 372.364L220.464 369.955C213.646 368.591 208.57 366.227 205.237 362.864C201.934 359.5 200.283 355.212 200.283 350C200.283 345.515 201.495 341.652 203.919 338.409C206.373 335.167 209.813 332.667 214.237 330.909C218.692 329.152 223.904 328.273 229.873 328.273C238.692 328.273 245.631 330.136 250.692 333.864C255.783 337.591 258.752 342.667 259.601 349.091ZM294.574 400.318C290.119 400.318 286.15 399.545 282.665 398C279.18 396.424 276.422 394.106 274.392 391.045C272.392 387.955 271.392 384.106 271.392 379.5C271.392 375.621 272.104 372.364 273.528 369.727C274.953 367.091 276.892 364.97 279.347 363.364C281.801 361.758 284.589 360.545 287.71 359.727C290.862 358.909 294.165 358.333 297.619 358C301.68 357.576 304.953 357.182 307.438 356.818C309.922 356.424 311.725 355.848 312.847 355.091C313.968 354.333 314.528 353.212 314.528 351.727V351.455C314.528 348.576 313.619 346.348 311.801 344.773C310.013 343.197 307.468 342.409 304.165 342.409C300.68 342.409 297.907 343.182 295.847 344.727C293.786 346.242 292.422 348.152 291.756 350.455L273.847 349C274.756 344.758 276.544 341.091 279.21 338C281.877 334.879 285.316 332.485 289.528 330.818C293.771 329.121 298.68 328.273 304.256 328.273C308.134 328.273 311.847 328.727 315.392 329.636C318.968 330.545 322.134 331.955 324.892 333.864C327.68 335.773 329.877 338.227 331.483 341.227C333.089 344.197 333.892 347.758 333.892 351.909V399H315.528V389.318H314.983C313.862 391.5 312.362 393.424 310.483 395.091C308.604 396.727 306.347 398.015 303.71 398.955C301.074 399.864 298.028 400.318 294.574 400.318ZM300.119 386.955C302.968 386.955 305.483 386.394 307.665 385.273C309.847 384.121 311.559 382.576 312.801 380.636C314.044 378.697 314.665 376.5 314.665 374.045V366.636C314.059 367.03 313.225 367.394 312.165 367.727C311.134 368.03 309.968 368.318 308.665 368.591C307.362 368.833 306.059 369.061 304.756 369.273C303.453 369.455 302.271 369.621 301.21 369.773C298.938 370.106 296.953 370.636 295.256 371.364C293.559 372.091 292.241 373.076 291.301 374.318C290.362 375.53 289.892 377.045 289.892 378.864C289.892 381.5 290.847 383.515 292.756 384.909C294.695 386.273 297.15 386.955 300.119 386.955ZM350.558 399V305.909H369.922V340.909H370.513C371.361 339.03 372.589 337.121 374.195 335.182C375.831 333.212 377.952 331.576 380.558 330.273C383.195 328.939 386.468 328.273 390.377 328.273C395.468 328.273 400.164 329.606 404.467 332.273C408.771 334.909 412.21 338.894 414.786 344.227C417.361 349.53 418.649 356.182 418.649 364.182C418.649 371.97 417.392 378.545 414.877 383.909C412.392 389.242 408.998 393.288 404.695 396.045C400.422 398.773 395.634 400.136 390.331 400.136C386.574 400.136 383.377 399.515 380.74 398.273C378.134 397.03 375.998 395.47 374.331 393.591C372.664 391.682 371.392 389.758 370.513 387.818H369.649V399H350.558ZM369.513 364.091C369.513 368.242 370.089 371.864 371.24 374.955C372.392 378.045 374.058 380.455 376.24 382.182C378.422 383.879 381.074 384.727 384.195 384.727C387.346 384.727 390.013 383.864 392.195 382.136C394.377 380.379 396.028 377.955 397.149 374.864C398.301 371.742 398.877 368.152 398.877 364.091C398.877 360.061 398.316 356.515 397.195 353.455C396.074 350.394 394.422 348 392.24 346.273C390.058 344.545 387.377 343.682 384.195 343.682C381.043 343.682 378.377 344.515 376.195 346.182C374.043 347.848 372.392 350.212 371.24 353.273C370.089 356.333 369.513 359.939 369.513 364.091ZM452.213 305.909V399H432.85V305.909H452.213ZM500.823 400.364C493.641 400.364 487.459 398.909 482.277 396C477.126 393.061 473.156 388.909 470.368 383.545C467.581 378.152 466.187 371.773 466.187 364.409C466.187 357.227 467.581 350.924 470.368 345.5C473.156 340.076 477.081 335.848 482.141 332.818C487.232 329.788 493.202 328.273 500.05 328.273C504.656 328.273 508.944 329.015 512.914 330.5C516.914 331.955 520.399 334.152 523.368 337.091C526.368 340.03 528.702 343.727 530.368 348.182C532.035 352.606 532.868 357.788 532.868 363.727V369.045H473.914V357.045H514.641C514.641 354.258 514.035 351.788 512.823 349.636C511.611 347.485 509.929 345.803 507.777 344.591C505.656 343.348 503.187 342.727 500.368 342.727C497.429 342.727 494.823 343.409 492.55 344.773C490.308 346.106 488.55 347.909 487.277 350.182C486.005 352.424 485.353 354.924 485.323 357.682V369.091C485.323 372.545 485.959 375.53 487.232 378.045C488.535 380.561 490.368 382.5 492.732 383.864C495.096 385.227 497.899 385.909 501.141 385.909C503.293 385.909 505.262 385.606 507.05 385C508.838 384.394 510.368 383.485 511.641 382.273C512.914 381.061 513.884 379.576 514.55 377.818L532.459 379C531.55 383.303 529.687 387.061 526.868 390.273C524.081 393.455 520.474 395.939 516.05 397.727C511.656 399.485 506.581 400.364 500.823 400.364Z" fill="#6A9953"/>
<path d="M105.828 244H104.828V245H105.828V244ZM105.828 150.909V149.909H104.828V150.909H105.828ZM168.556 150.909H169.556V149.909H168.556V150.909ZM168.556 167.136V168.136H169.556V167.136H168.556ZM125.51 167.136V166.136H124.51V167.136H125.51ZM125.51 189.318H124.51V190.318H125.51V189.318ZM165.328 189.318H166.328V188.318H165.328V189.318ZM165.328 205.545V206.545H166.328V205.545H165.328ZM125.51 205.545V204.545H124.51V205.545H125.51ZM125.51 227.773H124.51V228.773H125.51V227.773ZM168.738 227.773H169.738V226.773H168.738V227.773ZM168.738 244V245H169.738V244H168.738ZM106.828 244V150.909H104.828V244H106.828ZM105.828 151.909H168.556V149.909H105.828V151.909ZM167.556 150.909V167.136H169.556V150.909H167.556ZM168.556 166.136H125.51V168.136H168.556V166.136ZM124.51 167.136V189.318H126.51V167.136H124.51ZM125.51 190.318H165.328V188.318H125.51V190.318ZM164.328 189.318V205.545H166.328V189.318H164.328ZM165.328 204.545H125.51V206.545H165.328V204.545ZM124.51 205.545V227.773H126.51V205.545H124.51ZM125.51 228.773H168.738V226.773H125.51V228.773ZM167.738 227.773V244H169.738V227.773H167.738ZM168.738 243H105.828V245H168.738V243ZM235.983 177.682L234.988 177.781L235.078 178.682H235.983V177.682ZM211.938 167.455L212.307 168.384L212.318 168.379L211.938 167.455ZM206.847 171.136L206.047 170.536L206.04 170.546L206.847 171.136ZM205.12 176.5L206.119 176.536L206.12 176.518V176.5H205.12ZM206.165 180.864L205.311 181.384L205.316 181.392L205.321 181.399L206.165 180.864ZM209.393 184.091L208.838 184.923L208.844 184.927L208.851 184.931L209.393 184.091ZM214.12 186.409L213.77 187.346L213.777 187.349L213.784 187.351L214.12 186.409ZM219.847 188.045L220.08 187.073L220.073 187.071L220.066 187.07L219.847 188.045ZM228.211 190.045L227.978 191.018L227.985 191.02L227.992 191.021L228.211 190.045ZM239.393 193.682L238.985 194.595L238.985 194.595L239.393 193.682ZM248.211 199.273L248.876 198.526L248.876 198.526L248.211 199.273ZM253.983 207.091L253.073 207.505L253.077 207.512L253.983 207.091ZM256.12 217.409L257.12 217.414L257.12 217.401L256.12 217.409ZM251.756 232.227L250.932 231.66L250.932 231.662L251.756 232.227ZM239.393 241.909L239.783 242.83L239.785 242.829L239.393 241.909ZM200.347 241.864L199.964 242.787L199.965 242.788L200.347 241.864ZM187.347 231.636L186.52 232.199L186.524 232.205L187.347 231.636ZM182.483 214.773V213.773H181.461L181.484 214.795L182.483 214.773ZM201.529 214.773L202.527 214.705L202.463 213.773H201.529V214.773ZM204.211 222.591L203.412 223.193L203.417 223.199L203.422 223.206L204.211 222.591ZM210.62 227.273L210.25 228.202L210.263 228.207L210.62 227.273ZM228.438 227.364L228.074 226.432L228.071 226.434L228.438 227.364ZM234.211 223.318L234.996 223.938L234.996 223.938L234.211 223.318ZM234.393 212.091L233.631 212.739L233.639 212.748L234.393 212.091ZM229.029 208.455L228.635 209.374L228.639 209.376L229.029 208.455ZM220.438 205.727L220.194 206.697L220.204 206.699L220.438 205.727ZM210.302 203.182L210.545 202.212L210.538 202.21L210.302 203.182ZM191.711 194.227L191.044 194.973L191.044 194.973L191.711 194.227ZM184.938 177.818L185.938 177.823L185.938 177.813L184.938 177.818ZM189.438 163.045L188.629 162.458L188.626 162.461L189.438 163.045ZM238.302 153.182L237.885 154.091L237.887 154.092L238.302 153.182ZM250.393 163.045L249.567 163.61L249.567 163.61L250.393 163.045ZM254.847 177.682V178.682H255.864L255.847 177.665L254.847 177.682ZM236.979 177.583C236.589 173.659 234.899 170.543 231.894 168.331L230.709 169.942C233.219 171.79 234.65 174.372 234.988 177.781L236.979 177.583ZM231.894 168.331C228.911 166.134 224.935 165.091 220.074 165.091V167.091C224.668 167.091 228.177 168.078 230.709 169.942L231.894 168.331ZM220.074 165.091C216.774 165.091 213.924 165.557 211.558 166.53L212.318 168.379C214.376 167.534 216.95 167.091 220.074 167.091V165.091ZM211.569 166.525C209.221 167.458 207.36 168.785 206.047 170.536L207.647 171.736C208.697 170.336 210.23 169.209 212.307 168.384L211.569 166.525ZM206.04 170.546C204.76 172.298 204.12 174.294 204.12 176.5H206.12C206.12 174.706 206.631 173.126 207.654 171.726L206.04 170.546ZM204.12 176.464C204.054 178.297 204.437 179.951 205.311 181.384L207.019 180.343C206.378 179.291 206.065 178.037 206.119 176.536L204.12 176.464ZM205.321 181.399C206.192 182.772 207.371 183.945 208.838 184.923L209.947 183.259C208.687 182.418 207.715 181.44 207.01 180.328L205.321 181.399ZM208.851 184.931C210.284 185.855 211.927 186.659 213.77 187.346L214.469 185.472C212.737 184.826 211.228 184.084 209.934 183.25L208.851 184.931ZM213.784 187.351C215.614 188.002 217.562 188.559 219.629 189.021L220.066 187.07C218.071 186.623 216.201 186.089 214.455 185.467L213.784 187.351ZM219.614 189.018L227.978 191.018L228.443 189.073L220.08 187.073L219.614 189.018ZM227.992 191.021C231.995 191.918 235.658 193.11 238.985 194.595L239.8 192.769C236.339 191.223 232.547 189.992 228.429 189.07L227.992 191.021ZM238.985 194.595C242.296 196.073 245.146 197.883 247.546 200.02L248.876 198.526C246.306 196.238 243.277 194.321 239.8 192.769L238.985 194.595ZM247.546 200.02C249.927 202.14 251.768 204.633 253.073 207.505L254.894 206.677C253.472 203.549 251.464 200.83 248.876 198.526L247.546 200.02ZM253.077 207.512C254.401 210.362 255.09 213.657 255.12 217.417L257.12 217.401C257.089 213.404 256.354 209.82 254.89 206.67L253.077 207.512ZM255.12 217.404C255.09 222.925 253.684 227.664 250.932 231.66L252.58 232.794C255.586 228.427 257.089 223.287 257.12 217.414L255.12 217.404ZM250.932 231.662C248.207 235.632 244.248 238.748 239 240.989L239.785 242.829C245.324 240.464 249.608 237.126 252.581 232.793L250.932 231.662ZM239.002 240.988C233.793 243.196 227.464 244.318 219.983 244.318V246.318C227.655 246.318 234.265 245.168 239.783 242.83L239.002 240.988ZM219.983 244.318C212.568 244.318 206.158 243.182 200.729 240.939L199.965 242.788C205.688 245.152 212.368 246.318 219.983 246.318V244.318ZM200.731 240.94C195.345 238.704 191.171 235.41 188.17 231.068L186.524 232.205C189.765 236.893 194.258 240.418 199.964 242.787L200.731 240.94ZM188.174 231.074C185.213 226.72 183.631 221.297 183.483 214.75L181.484 214.795C181.639 221.643 183.299 227.462 186.52 232.199L188.174 231.074ZM182.483 215.773H201.529V213.773H182.483V215.773ZM200.531 214.841C200.754 218.117 201.698 220.919 203.412 223.193L205.009 221.989C203.571 220.081 202.728 217.671 202.527 214.705L200.531 214.841ZM203.422 223.206C205.148 225.42 207.435 227.082 210.25 228.202L210.989 226.344C208.471 225.342 206.486 223.883 204.999 221.976L203.422 223.206ZM210.263 228.207C213.092 229.288 216.261 229.818 219.756 229.818V227.818C216.463 227.818 213.542 227.318 210.977 226.339L210.263 228.207ZM219.756 229.818C223.183 229.818 226.208 229.32 228.805 228.294L228.071 226.434C225.759 227.347 222.995 227.818 219.756 227.818V229.818ZM228.802 228.295C231.417 227.275 233.501 225.832 234.996 223.938L233.426 222.699C232.194 224.259 230.429 225.513 228.074 226.432L228.802 228.295ZM234.996 223.938C236.501 222.03 237.256 219.826 237.256 217.364H235.256C235.256 219.386 234.647 221.151 233.426 222.699L234.996 223.938ZM237.256 217.364C237.256 215.059 236.565 213.06 235.146 211.434L233.639 212.748C234.705 213.971 235.256 215.487 235.256 217.364H237.256ZM235.154 211.443C233.81 209.864 231.875 208.573 229.419 207.534L228.639 209.376C230.91 210.336 232.55 211.469 233.631 212.739L235.154 211.443ZM229.423 207.535C227.023 206.507 224.102 205.582 220.672 204.755L220.204 206.699C223.562 207.509 226.368 208.402 228.635 209.374L229.423 207.535ZM220.682 204.757L210.545 202.212L210.058 204.152L220.194 206.697L220.682 204.757ZM210.538 202.21C202.799 200.328 196.766 197.403 192.377 193.482L191.044 194.973C195.746 199.173 202.107 202.218 210.065 204.153L210.538 202.21ZM192.377 193.482C188.074 189.637 185.909 184.456 185.938 177.823L183.938 177.814C183.907 184.938 186.257 190.696 191.044 194.973L192.377 193.482ZM185.938 177.813C185.909 172.369 187.354 167.655 190.25 163.629L188.626 162.461C185.462 166.86 183.907 171.995 183.938 177.824L185.938 177.813ZM190.247 163.633C193.192 159.58 197.242 156.397 202.434 154.096L201.624 152.268C196.149 154.694 191.805 158.086 188.629 162.458L190.247 163.633ZM202.434 154.096C207.621 151.797 213.54 150.636 220.211 150.636V148.636C213.306 148.636 207.104 149.839 201.624 152.268L202.434 154.096ZM220.211 150.636C227.007 150.636 232.889 151.799 237.885 154.091L238.719 152.273C233.411 149.838 227.233 148.636 220.211 148.636V150.636ZM237.887 154.092C242.922 156.389 246.803 159.565 249.567 163.61L251.218 162.481C248.225 158.102 244.044 154.702 238.717 152.272L237.887 154.092ZM249.567 163.61C252.326 167.646 253.759 172.331 253.847 177.698L255.847 177.665C255.753 171.942 254.217 166.869 251.218 162.481L249.567 163.61ZM254.847 176.682H235.983V178.682H254.847V176.682ZM270.638 244H269.638V245H270.638V244ZM270.638 150.909V149.909H269.638V150.909H270.638ZM290.32 150.909H291.32V149.909H290.32V150.909ZM290.32 227.773H289.32V228.773H290.32V227.773ZM330.229 227.773H331.229V226.773H330.229V227.773ZM330.229 244V245H331.229V244H330.229ZM271.638 244V150.909H269.638V244H271.638ZM270.638 151.909H290.32V149.909H270.638V151.909ZM289.32 150.909V227.773H291.32V150.909H289.32ZM290.32 228.773H330.229V226.773H290.32V228.773ZM329.229 227.773V244H331.229V227.773H329.229ZM330.229 243H270.638V245H330.229V243ZM344.18 244H343.18V245H344.18V244ZM344.18 174.182V173.182H343.18V174.182H344.18ZM363.543 174.182H364.543V173.182H363.543V174.182ZM363.543 244V245H364.543V244H363.543ZM346.498 162.318L345.807 163.041L345.813 163.047L345.818 163.052L346.498 162.318ZM346.498 148.5L347.183 149.229L347.183 149.228L346.498 148.5ZM361.271 148.5L360.58 149.223L360.585 149.228L360.591 149.234L361.271 148.5ZM361.271 162.318L361.956 163.047L361.956 163.046L361.271 162.318ZM345.18 244V174.182H343.18V244H345.18ZM344.18 175.182H363.543V173.182H344.18V175.182ZM362.543 174.182V244H364.543V174.182H362.543ZM363.543 243H344.18V245H363.543V243ZM353.907 164.182C351.273 164.182 349.048 163.318 347.178 161.585L345.818 163.052C348.069 165.137 350.783 166.182 353.907 166.182V164.182ZM347.189 161.595C345.347 159.836 344.453 157.775 344.453 155.364H342.453C342.453 158.346 343.589 160.922 345.807 163.041L347.189 161.595ZM344.453 155.364C344.453 152.987 345.343 150.958 347.183 149.229L345.813 147.771C343.592 149.86 342.453 152.407 342.453 155.364H344.453ZM347.183 149.228C349.055 147.467 351.278 146.591 353.907 146.591V144.591C350.778 144.591 348.062 145.654 345.813 147.772L347.183 149.228ZM353.907 146.591C356.536 146.591 358.741 147.466 360.58 149.223L361.961 147.777C359.74 145.655 357.036 144.591 353.907 144.591V146.591ZM360.591 149.234C362.46 150.965 363.362 152.992 363.362 155.364H365.362C365.362 152.402 364.203 149.853 361.95 147.766L360.591 149.234ZM363.362 155.364C363.362 157.77 362.456 159.829 360.585 161.59L361.956 163.046C364.206 160.928 365.362 158.351 365.362 155.364H363.362ZM360.586 161.59C358.747 163.318 356.541 164.182 353.907 164.182V166.182C357.031 166.182 359.733 165.136 361.956 163.047L360.586 161.59ZM399.698 203.636L398.698 203.626V203.636H399.698ZM399.698 244V245H400.698V244H399.698ZM380.335 244H379.335V245H380.335V244ZM380.335 174.182V173.182H379.335V174.182H380.335ZM398.789 174.182H399.789V173.182H398.789V174.182ZM398.789 186.5H397.789V187.5H398.789V186.5ZM399.607 186.5V187.5H400.297L400.542 186.856L399.607 186.5ZM407.38 176.864L407.925 177.702L407.93 177.699L407.38 176.864ZM433.289 176.455L433.796 175.593L433.289 176.455ZM441.698 185.545L440.807 185.998L440.808 186.001L441.698 185.545ZM444.698 244V245H445.698V244H444.698ZM425.335 244H424.335V245H425.335V244ZM425.335 203L424.335 202.993V203H425.335ZM422.062 193L421.323 193.674L421.328 193.679L422.062 193ZM406.017 191.045L405.528 190.173L405.522 190.176L406.017 191.045ZM401.38 195.955L400.493 195.492L400.491 195.497L401.38 195.955ZM398.698 203.636V244H400.698V203.636H398.698ZM399.698 243H380.335V245H399.698V243ZM381.335 244V174.182H379.335V244H381.335ZM380.335 175.182H398.789V173.182H380.335V175.182ZM397.789 174.182V186.5H399.789V174.182H397.789ZM398.789 187.5H399.607V185.5H398.789V187.5ZM400.542 186.856C402.012 182.993 404.467 179.95 407.925 177.702L406.835 176.025C403.021 178.505 400.294 181.886 398.673 186.144L400.542 186.856ZM407.93 177.699C411.374 175.431 415.583 174.273 420.607 174.273V172.273C415.268 172.273 410.659 173.508 406.83 176.028L407.93 177.699ZM420.607 174.273C425.306 174.273 429.353 175.299 432.782 177.316L433.796 175.593C430.014 173.367 425.606 172.273 420.607 172.273V174.273ZM432.782 177.316C436.214 179.335 438.888 182.219 440.807 185.998L442.59 185.093C440.509 180.993 437.576 177.816 433.796 175.593L432.782 177.316ZM440.808 186.001C442.721 189.74 443.698 194.243 443.698 199.545H445.698C445.698 193.999 444.676 189.169 442.589 185.09L440.808 186.001ZM443.698 199.545V244H445.698V199.545H443.698ZM444.698 243H425.335V245H444.698V243ZM426.335 244V203H424.335V244H426.335ZM426.335 203.007C426.366 198.562 425.229 194.954 422.796 192.321L421.328 193.679C423.319 195.834 424.364 198.893 424.335 202.993L426.335 203.007ZM422.801 192.326C420.365 189.656 417.03 188.364 412.926 188.364V190.364C416.579 190.364 419.335 191.495 421.323 193.674L422.801 192.326ZM412.926 188.364C410.172 188.364 407.696 188.957 405.528 190.173L406.506 191.918C408.337 190.891 410.467 190.364 412.926 190.364V188.364ZM405.522 190.176C403.373 191.399 401.697 193.183 400.493 195.492L402.267 196.417C403.306 194.423 404.721 192.934 406.511 191.915L405.522 190.176ZM400.491 195.497C399.313 197.788 398.73 200.51 398.698 203.626L400.698 203.646C400.727 200.763 401.266 198.364 402.269 196.412L400.491 195.497ZM498.376 174.182H499.376V173.182H498.376V174.182ZM498.376 188.727V189.727H499.376V188.727H498.376ZM456.331 188.727H455.331V189.727H456.331V188.727ZM456.331 174.182V173.182H455.331V174.182H456.331ZM465.876 157.455V156.455H464.876V157.455H465.876ZM485.24 157.455H486.24V156.455H485.24V157.455ZM486.058 226.727L485.18 227.206L485.186 227.218L486.058 226.727ZM488.331 228.773L487.954 229.699L487.964 229.703L488.331 228.773ZM494.513 229.136L494.677 230.123L494.693 230.12L494.709 230.117L494.513 229.136ZM496.603 228.727L497.582 228.52L497.38 227.564L496.419 227.744L496.603 228.727ZM499.649 243.136L499.947 244.091L500.815 243.82L500.627 242.93L499.649 243.136ZM495.558 244.182L495.339 243.206L495.331 243.208L495.323 243.21L495.558 244.182ZM489.149 244.955L489.113 243.955L489.11 243.955L489.149 244.955ZM476.876 243.091L476.498 244.017L476.501 244.018L476.876 243.091ZM468.74 236.455L469.58 235.912L469.58 235.912L468.74 236.455ZM465.876 225.091L466.876 225.098V225.091H465.876ZM497.376 174.182V188.727H499.376V174.182H497.376ZM498.376 187.727H456.331V189.727H498.376V187.727ZM457.331 188.727V174.182H455.331V188.727H457.331ZM456.331 175.182H498.376V173.182H456.331V175.182ZM465.876 158.455H485.24V156.455H465.876V158.455ZM484.24 157.455V222.545H486.24V157.455H484.24ZM484.24 222.545C484.24 224.414 484.521 225.999 485.18 227.206L486.936 226.248C486.504 225.456 486.24 224.252 486.24 222.545H484.24ZM485.186 227.218C485.835 228.371 486.761 229.214 487.954 229.699L488.707 227.846C487.961 227.543 487.372 227.023 486.93 226.237L485.186 227.218ZM487.964 229.703C489.103 230.152 490.383 230.364 491.785 230.364V228.364C490.582 228.364 489.559 228.182 488.697 227.842L487.964 229.703ZM491.785 230.364C492.75 230.364 493.714 230.283 494.677 230.123L494.348 228.15C493.493 228.293 492.638 228.364 491.785 228.364V230.364ZM494.709 230.117C495.617 229.935 496.309 229.8 496.788 229.71L496.419 227.744C495.928 227.836 495.227 227.974 494.316 228.156L494.709 230.117ZM495.625 228.934L498.67 243.343L500.627 242.93L497.582 228.52L495.625 228.934ZM499.351 242.182C498.42 242.473 497.087 242.814 495.339 243.206L495.777 245.158C497.544 244.761 498.939 244.406 499.947 244.091L499.351 242.182ZM495.323 243.21C493.651 243.614 491.585 243.866 489.113 243.955L489.185 245.954C491.743 245.861 493.95 245.599 495.793 245.154L495.323 243.21ZM489.11 243.955C484.553 244.133 480.609 243.524 477.252 242.164L476.501 244.018C480.174 245.506 484.411 246.14 489.188 245.954L489.11 243.955ZM477.254 242.165C473.948 240.814 471.402 238.73 469.58 235.912L467.9 236.997C469.957 240.179 472.834 242.519 476.498 244.017L477.254 242.165ZM469.58 235.912C467.772 233.116 466.847 229.533 466.876 225.098L464.876 225.084C464.845 229.801 465.829 233.793 467.9 236.997L469.58 235.912ZM466.876 225.091V157.455H464.876V225.091H466.876ZM71.3134 399H70.3134V400H71.3134V399ZM71.3134 305.909V304.909H70.3134V305.909H71.3134ZM128.768 311.5L128.285 312.376L128.288 312.377L128.768 311.5ZM144.359 327.455L143.473 327.919L143.475 327.922L144.359 327.455ZM144.359 377.364L143.474 376.898L143.472 376.901L144.359 377.364ZM128.677 393.409L128.197 392.532L128.196 392.533L128.677 393.409ZM90.9952 382.136H89.9952V383.136H90.9952V382.136ZM118.177 379.045L118.638 379.933L118.64 379.932L118.177 379.045ZM127.177 369.364L126.269 368.944L126.268 368.947L127.177 369.364ZM127.177 335.5L126.268 335.917L126.27 335.922L127.177 335.5ZM118.223 325.864L118.683 324.976L118.683 324.976L118.223 325.864ZM90.9952 322.773V321.773H89.9952V322.773H90.9952ZM104.313 398H71.3134V400H104.313V398ZM72.3134 399V305.909H70.3134V399H72.3134ZM71.3134 306.909H104.586V304.909H71.3134V306.909ZM104.586 306.909C113.817 306.909 121.704 308.746 128.285 312.376L129.251 310.624C122.317 306.8 114.083 304.909 104.586 304.909V306.909ZM128.288 312.377C134.869 315.978 139.927 321.151 143.473 327.919L145.245 326.99C141.518 319.879 136.182 314.416 129.248 310.623L128.288 312.377ZM143.475 327.922C147.05 334.688 148.859 342.823 148.859 352.364H150.859C150.859 342.571 149.001 334.1 145.243 326.987L143.475 327.922ZM148.859 352.364C148.859 361.935 147.049 370.101 143.474 376.898L145.244 377.829C149.002 370.686 150.859 362.186 150.859 352.364H148.859ZM143.472 376.901C139.926 383.697 134.84 388.901 128.197 392.532L129.157 394.287C136.151 390.463 141.519 384.969 145.245 377.826L143.472 376.901ZM128.196 392.533C121.585 396.163 113.637 398 104.313 398V400C113.899 400 122.194 398.11 129.158 394.286L128.196 392.533ZM90.9952 383.136H103.495V381.136H90.9952V383.136ZM103.495 383.136C109.427 383.136 114.489 382.086 118.638 379.933L117.716 378.158C113.925 380.126 109.2 381.136 103.495 381.136V383.136ZM118.64 379.932C122.85 377.731 126 374.332 128.086 369.78L126.268 368.947C124.354 373.123 121.504 376.178 117.714 378.159L118.64 379.932ZM128.085 369.783C130.196 365.213 131.223 359.39 131.223 352.364H129.223C129.223 359.216 128.218 364.726 126.269 368.944L128.085 369.783ZM131.223 352.364C131.223 345.397 130.196 339.618 128.084 335.078L126.27 335.922C128.219 340.109 129.223 345.573 129.223 352.364H131.223ZM128.086 335.083C126.001 330.533 122.866 327.147 118.683 324.976L117.762 326.751C121.519 328.701 124.354 331.74 126.268 335.917L128.086 335.083ZM118.683 324.976C114.535 322.823 109.473 321.773 103.541 321.773V323.773C109.245 323.773 113.971 324.783 117.762 326.751L118.683 324.976ZM103.541 321.773H90.9952V323.773H103.541V321.773ZM89.9952 322.773V382.136H91.9952V322.773H89.9952ZM165.355 399H164.355V400H165.355V399ZM165.355 329.182V328.182H164.355V329.182H165.355ZM184.718 329.182H185.718V328.182H184.718V329.182ZM184.718 399V400H185.718V399H184.718ZM167.673 317.318L166.982 318.041L166.988 318.047L166.993 318.052L167.673 317.318ZM167.673 303.5L168.358 304.229L168.358 304.228L167.673 303.5ZM182.446 303.5L181.755 304.223L181.76 304.228L181.766 304.234L182.446 303.5ZM182.446 317.318L183.131 318.047L183.131 318.046L182.446 317.318ZM166.355 399V329.182H164.355V399H166.355ZM165.355 330.182H184.718V328.182H165.355V330.182ZM183.718 329.182V399H185.718V329.182H183.718ZM184.718 398H165.355V400H184.718V398ZM175.082 319.182C172.448 319.182 170.223 318.318 168.353 316.585L166.993 318.052C169.244 320.137 171.958 321.182 175.082 321.182V319.182ZM168.364 316.595C166.522 314.836 165.628 312.775 165.628 310.364H163.628C163.628 313.346 164.764 315.922 166.982 318.041L168.364 316.595ZM165.628 310.364C165.628 307.987 166.518 305.958 168.358 304.229L166.988 302.771C164.767 304.86 163.628 307.407 163.628 310.364H165.628ZM168.358 304.228C170.23 302.467 172.453 301.591 175.082 301.591V299.591C171.953 299.591 169.237 300.654 166.988 302.772L168.358 304.228ZM175.082 301.591C177.711 301.591 179.916 302.466 181.755 304.223L183.136 302.777C180.915 300.655 178.211 299.591 175.082 299.591V301.591ZM181.766 304.234C183.635 305.965 184.537 307.992 184.537 310.364H186.537C186.537 307.402 185.378 304.853 183.125 302.766L181.766 304.234ZM184.537 310.364C184.537 312.77 183.631 314.829 181.76 316.59L183.131 318.046C185.381 315.928 186.537 313.351 186.537 310.364H184.537ZM181.761 316.59C179.922 318.318 177.716 319.182 175.082 319.182V321.182C178.206 321.182 180.908 320.136 183.131 318.047L181.761 316.59ZM259.601 349.091L259.662 350.089L260.732 350.023L260.592 348.96L259.601 349.091ZM241.873 350.182L240.893 350.378L241.064 351.234L241.935 351.18L241.873 350.182ZM239.919 346.091L239.14 346.718L239.147 346.727L239.919 346.091ZM235.964 343.136L235.538 344.041L235.548 344.046L235.558 344.05L235.964 343.136ZM222.601 343.909L223.117 344.766L223.126 344.76L222.601 343.909ZM221.51 353.136L220.856 353.893L220.856 353.893L221.51 353.136ZM228.373 355.909L228.163 356.887L228.176 356.889L228.373 355.909ZM241.01 358.455L241.211 357.475L241.207 357.474L241.01 358.455ZM256.192 365.182L255.512 365.915L255.512 365.915L256.192 365.182ZM257.146 389.409L256.358 388.794L256.355 388.798L257.146 389.409ZM246.146 397.5L246.527 398.425L246.53 398.423L246.146 397.5ZM208.01 394.591L207.43 395.406L207.435 395.41L208.01 394.591ZM198.419 378.773L198.366 377.774L197.276 377.831L197.429 378.912L198.419 378.773ZM217.464 377.773L218.444 377.573L218.272 376.729L217.412 376.774L217.464 377.773ZM221.646 384.227L221.089 385.058L221.097 385.063L221.646 384.227ZM238.328 384.455L238.862 385.3L238.866 385.298L238.328 384.455ZM241.51 379.318L242.51 379.333L242.51 379.317L242.51 379.301L241.51 379.318ZM239.283 375L238.662 375.784L238.672 375.792L239.283 375ZM232.555 372.364L232.751 371.383L232.751 371.383L232.555 372.364ZM220.464 369.955L220.268 370.935L220.269 370.935L220.464 369.955ZM205.237 362.864L204.524 363.564L204.527 363.568L205.237 362.864ZM203.919 338.409L203.122 337.806L203.118 337.81L203.919 338.409ZM214.237 330.909L213.87 329.979L213.868 329.98L214.237 330.909ZM250.692 333.864L250.099 334.669L250.101 334.67L250.692 333.864ZM259.539 348.093L241.812 349.184L241.935 351.18L259.662 350.089L259.539 348.093ZM242.854 349.986C242.518 348.306 241.793 346.792 240.69 345.455L239.147 346.727C240.044 347.814 240.623 349.027 240.893 350.378L242.854 349.986ZM240.698 345.464C239.586 344.083 238.134 343.006 236.37 342.223L235.558 344.05C237.067 344.721 238.251 345.614 239.14 346.718L240.698 345.464ZM236.391 342.232C234.621 341.397 232.544 341 230.192 341V343C232.324 343 234.095 343.36 235.538 344.041L236.391 342.232ZM230.192 341C227.05 341 224.327 341.667 222.075 343.058L223.126 344.76C224.995 343.606 227.333 343 230.192 343V341ZM222.084 343.053C219.777 344.444 218.51 346.409 218.51 348.909H220.51C220.51 347.227 221.303 345.859 223.117 344.765L222.084 343.053ZM218.51 348.909C218.51 350.885 219.317 352.564 220.856 353.893L222.163 352.38C221.036 351.406 220.51 350.267 220.51 348.909H218.51ZM220.856 353.893C222.385 355.214 224.878 356.181 228.163 356.887L228.584 354.931C225.384 354.244 223.301 353.362 222.163 352.38L220.856 353.893ZM228.176 356.889L240.812 359.435L241.207 357.474L228.571 354.929L228.176 356.889ZM240.809 359.434C247.504 360.809 252.365 362.997 255.512 365.915L256.872 364.449C253.351 361.184 248.091 358.888 241.211 357.475L240.809 359.434ZM255.512 365.915C258.618 368.795 260.192 372.579 260.192 377.364H262.192C262.192 372.088 260.432 367.75 256.872 364.449L255.512 365.915ZM260.192 377.364C260.192 381.727 258.911 385.523 256.358 388.794L257.934 390.024C260.775 386.386 262.192 382.152 262.192 377.364H260.192ZM256.355 388.798C253.81 392.094 250.294 394.693 245.762 396.577L246.53 398.423C251.332 396.428 255.149 393.633 257.938 390.02L256.355 388.798ZM245.765 396.575C241.272 398.425 236.057 399.364 230.101 399.364V401.364C236.265 401.364 241.747 400.393 246.527 398.425L245.765 396.575ZM230.101 399.364C220.988 399.364 213.848 397.466 208.584 393.772L207.435 395.41C213.141 399.413 220.729 401.364 230.101 401.364V399.364ZM208.589 393.776C203.36 390.057 200.31 385.03 199.409 378.633L197.429 378.912C198.406 385.849 201.75 391.367 207.43 395.406L208.589 393.776ZM198.471 379.771L217.517 378.771L217.412 376.774L198.366 377.774L198.471 379.771ZM216.485 377.973C217.108 381.026 218.64 383.414 221.089 385.058L222.203 383.397C220.228 382.071 218.972 380.156 218.444 377.573L216.485 377.973ZM221.097 385.063C223.515 386.653 226.555 387.409 230.146 387.409V385.409C226.828 385.409 224.202 384.711 222.196 383.392L221.097 385.063ZM230.146 387.409C233.658 387.409 236.591 386.736 238.862 385.3L237.793 383.609C235.944 384.779 233.422 385.409 230.146 385.409V387.409ZM238.866 385.298C241.179 383.822 242.474 381.826 242.51 379.333L240.51 379.304C240.485 380.992 239.658 382.42 237.79 383.611L238.866 385.298ZM242.51 379.301C242.474 377.224 241.576 375.505 239.893 374.208L238.672 375.792C239.898 376.737 240.485 377.897 240.51 379.335L242.51 379.301ZM239.903 374.216C238.268 372.922 235.846 372.002 232.751 371.383L232.359 373.344C235.325 373.937 237.388 374.775 238.662 375.784L239.903 374.216ZM232.751 371.383L220.66 368.974L220.269 370.935L232.36 373.344L232.751 371.383ZM220.66 368.974C213.951 367.632 209.089 365.33 205.947 362.16L204.527 363.568C208.051 367.124 213.341 369.55 220.268 370.935L220.66 368.974ZM205.951 362.163C202.851 359.007 201.283 354.98 201.283 350H199.283C199.283 355.444 201.017 359.993 204.524 363.564L205.951 362.163ZM201.283 350C201.283 345.707 202.439 342.059 204.72 339.008L203.118 337.81C200.551 341.244 199.283 345.324 199.283 350H201.283ZM204.716 339.013C207.043 335.939 210.322 333.54 214.606 331.838L213.868 329.98C209.303 331.793 205.704 334.394 203.122 337.806L204.716 339.013ZM214.604 331.839C218.917 330.138 223.999 329.273 229.873 329.273V327.273C223.808 327.273 218.466 328.165 213.87 329.979L214.604 331.839ZM229.873 329.273C238.562 329.273 245.267 331.11 250.099 334.669L251.285 333.058C245.995 329.163 238.821 327.273 229.873 327.273V329.273ZM250.101 334.67C254.965 338.232 257.795 343.06 258.609 349.222L260.592 348.96C259.709 342.273 256.6 336.95 251.282 333.057L250.101 334.67ZM282.665 398L282.253 398.911L282.259 398.914L282.665 398ZM274.392 391.045L273.552 391.589L273.559 391.598L274.392 391.045ZM273.528 369.727L272.649 369.252L272.649 369.252L273.528 369.727ZM279.347 363.364L278.799 362.527L278.799 362.527L279.347 363.364ZM287.71 359.727L287.459 358.759L287.457 358.76L287.71 359.727ZM297.619 358L297.715 358.995L297.723 358.995L297.619 358ZM307.438 356.818L307.582 357.808L307.594 357.806L307.438 356.818ZM312.847 355.091L312.287 354.262L312.287 354.262L312.847 355.091ZM311.801 344.773L311.14 345.523L311.146 345.528L311.801 344.773ZM295.847 344.727L296.439 345.533L296.447 345.527L295.847 344.727ZM291.756 350.455L291.675 351.451L292.489 351.517L292.716 350.733L291.756 350.455ZM273.847 349L272.869 348.79L272.63 349.904L273.766 349.997L273.847 349ZM279.21 338L279.967 338.653L279.971 338.65L279.21 338ZM289.528 330.818L289.896 331.748L289.9 331.747L289.528 330.818ZM315.392 329.636L315.144 330.605L315.146 330.606L315.392 329.636ZM324.892 333.864L324.323 334.686L324.327 334.689L324.892 333.864ZM331.483 341.227L330.601 341.699L330.603 341.703L331.483 341.227ZM333.892 399V400H334.892V399H333.892ZM315.528 399H314.528V400H315.528V399ZM315.528 389.318H316.528V388.318H315.528V389.318ZM314.983 389.318V388.318H314.373L314.094 388.861L314.983 389.318ZM310.483 395.091L311.14 395.845L311.147 395.839L310.483 395.091ZM303.71 398.955L304.036 399.9L304.046 399.897L303.71 398.955ZM307.665 385.273L308.122 386.162L308.132 386.157L307.665 385.273ZM312.801 380.636L311.959 380.097L311.959 380.097L312.801 380.636ZM314.665 366.636H315.665V364.794L314.12 365.798L314.665 366.636ZM312.165 367.727L312.447 368.687L312.456 368.684L312.465 368.681L312.165 367.727ZM308.665 368.591L308.848 369.574L308.859 369.572L308.87 369.57L308.665 368.591ZM304.756 369.273L304.894 370.263L304.905 370.262L304.916 370.26L304.756 369.273ZM301.21 369.773L301.069 368.783L301.065 368.783L301.21 369.773ZM295.256 371.364L295.65 372.283L295.65 372.283L295.256 371.364ZM291.301 374.318L292.092 374.931L292.099 374.921L291.301 374.318ZM292.756 384.909L292.166 385.717L292.173 385.722L292.181 385.727L292.756 384.909ZM294.574 399.318C290.236 399.318 286.408 398.566 283.07 397.086L282.259 398.914C285.892 400.525 290.003 401.318 294.574 401.318V399.318ZM283.077 397.089C279.756 395.587 277.147 393.39 275.225 390.493L273.559 391.598C275.697 394.822 278.604 397.261 282.253 398.911L283.077 397.089ZM275.232 390.502C273.36 387.609 272.392 383.962 272.392 379.5H270.392C270.392 384.25 271.424 388.3 273.552 391.589L275.232 390.502ZM272.392 379.5C272.392 375.74 273.083 372.656 274.408 370.203L272.649 369.252C271.126 372.071 270.392 375.503 270.392 379.5H272.392ZM274.408 370.203C275.755 367.709 277.582 365.713 279.894 364.2L278.799 362.527C276.202 364.226 274.15 366.473 272.649 369.252L274.408 370.203ZM279.894 364.2C282.25 362.659 284.937 361.488 287.964 360.695L287.457 358.76C284.241 359.603 281.352 360.856 278.799 362.527L279.894 364.2ZM287.962 360.695C291.059 359.891 294.31 359.324 297.715 358.995L297.523 357.005C294.02 357.343 290.665 357.927 287.459 358.759L287.962 360.695ZM297.723 358.995C301.79 358.57 305.078 358.174 307.582 357.808L307.293 355.829C304.827 356.19 301.57 356.582 297.515 357.005L297.723 358.995ZM307.594 357.806C310.12 357.405 312.1 356.802 313.406 355.919L312.287 354.262C311.351 354.895 309.725 355.443 307.281 355.831L307.594 357.806ZM313.406 355.919C314.833 354.956 315.528 353.506 315.528 351.727H313.528C313.528 352.918 313.103 353.711 312.287 354.262L313.406 355.919ZM315.528 351.727V351.455H313.528V351.727H315.528ZM315.528 351.455C315.528 348.348 314.537 345.82 312.456 344.017L311.146 345.528C312.702 346.877 313.528 348.803 313.528 351.455H315.528ZM312.462 344.023C310.432 342.233 307.617 341.409 304.165 341.409V343.409C307.318 343.409 309.595 344.161 311.14 345.523L312.462 344.023ZM304.165 341.409C300.539 341.409 297.532 342.213 295.247 343.927L296.447 345.527C298.282 344.151 300.821 343.409 304.165 343.409V341.409ZM295.254 343.922C293.029 345.558 291.527 347.647 290.795 350.176L292.716 350.733C293.317 348.656 294.543 346.927 296.439 345.533L295.254 343.922ZM291.837 349.458L273.928 348.003L273.766 349.997L291.675 351.451L291.837 349.458ZM274.824 349.21C275.701 345.121 277.417 341.609 279.967 338.653L278.453 337.347C275.67 340.573 273.811 344.395 272.869 348.79L274.824 349.21ZM279.971 338.65C282.521 335.665 285.82 333.361 289.896 331.748L289.16 329.888C284.813 331.609 281.233 334.093 278.45 337.35L279.971 338.65ZM289.9 331.747C294.001 330.106 298.78 329.273 304.256 329.273V327.273C298.58 327.273 293.54 328.136 289.157 329.89L289.9 331.747ZM304.256 329.273C308.056 329.273 311.684 329.718 315.144 330.605L315.64 328.668C312.009 327.737 308.213 327.273 304.256 327.273V329.273ZM315.146 330.606C318.617 331.488 321.673 332.851 324.323 334.686L325.461 333.041C322.596 331.058 319.318 329.603 315.638 328.667L315.146 330.606ZM324.327 334.689C326.982 336.507 329.07 338.84 330.601 341.699L332.365 340.755C330.683 337.615 328.378 335.039 325.457 333.039L324.327 334.689ZM330.603 341.703C332.114 344.497 332.892 347.886 332.892 351.909H334.892C334.892 347.629 334.064 343.897 332.363 340.752L330.603 341.703ZM332.892 351.909V399H334.892V351.909H332.892ZM333.892 398H315.528V400H333.892V398ZM316.528 399V389.318H314.528V399H316.528ZM315.528 388.318H314.983V390.318H315.528V388.318ZM314.094 388.861C313.03 390.93 311.608 392.756 309.819 394.343L311.147 395.839C313.116 394.092 314.693 392.07 315.872 389.775L314.094 388.861ZM309.826 394.337C308.053 395.882 305.908 397.11 303.375 398.013L304.046 399.897C306.786 398.92 309.156 397.573 311.14 395.845L309.826 394.337ZM303.384 398.009C300.874 398.875 297.943 399.318 294.574 399.318V401.318C298.114 401.318 301.273 400.853 304.036 399.9L303.384 398.009ZM300.119 387.955C303.101 387.955 305.777 387.367 308.122 386.162L307.208 384.383C305.188 385.421 302.834 385.955 300.119 385.955V387.955ZM308.132 386.157C310.455 384.931 312.301 383.271 313.643 381.176L311.959 380.097C310.816 381.881 309.238 383.312 307.198 384.388L308.132 386.157ZM313.643 381.176C314.996 379.065 315.665 376.678 315.665 374.045H313.665C313.665 376.322 313.092 378.329 311.959 380.097L313.643 381.176ZM315.665 374.045V366.636H313.665V374.045H315.665ZM314.12 365.798C313.619 366.123 312.88 366.454 311.865 366.773L312.465 368.681C313.571 368.334 314.498 367.937 315.21 367.475L314.12 365.798ZM311.883 366.768C310.883 367.062 309.743 367.344 308.46 367.612L308.87 369.57C310.193 369.293 311.386 368.999 312.447 368.687L311.883 366.768ZM308.482 367.608C307.186 367.849 305.891 368.075 304.595 368.286L304.916 370.26C306.227 370.046 307.537 369.818 308.848 369.574L308.482 367.608ZM304.617 368.282C303.314 368.464 302.131 368.631 301.069 368.783L301.352 370.763C302.411 370.611 303.592 370.445 304.894 370.263L304.617 368.282ZM301.065 368.783C298.727 369.126 296.655 369.676 294.862 370.444L295.65 372.283C297.25 371.597 299.148 371.086 301.355 370.762L301.065 368.783ZM294.862 370.444C293.035 371.227 291.566 372.31 290.503 373.715L292.099 374.921C292.915 373.841 294.083 372.954 295.65 372.283L294.862 370.444ZM290.511 373.706C289.411 375.124 288.892 376.866 288.892 378.864H290.892C290.892 377.225 291.312 375.937 292.092 374.931L290.511 373.706ZM288.892 378.864C288.892 381.777 289.967 384.111 292.166 385.717L293.345 384.101C291.727 382.92 290.892 381.223 290.892 378.864H288.892ZM292.181 385.727C294.327 387.236 296.996 387.955 300.119 387.955V385.955C297.303 385.955 295.064 385.309 293.331 384.091L292.181 385.727ZM350.558 399H349.558V400H350.558V399ZM350.558 305.909V304.909H349.558V305.909H350.558ZM369.922 305.909H370.922V304.909H369.922V305.909ZM369.922 340.909H368.922V341.909H369.922V340.909ZM370.513 340.909V341.909H371.159L371.424 341.321L370.513 340.909ZM374.195 335.182L373.426 334.543L373.425 334.544L374.195 335.182ZM380.558 330.273L381.006 331.167L381.01 331.165L380.558 330.273ZM404.467 332.273L403.941 333.123L403.945 333.125L404.467 332.273ZM414.786 344.227L413.885 344.662L413.886 344.664L414.786 344.227ZM414.877 383.909L413.971 383.485L413.97 383.487L414.877 383.909ZM404.695 396.045L405.233 396.888L405.234 396.887L404.695 396.045ZM380.74 398.273L380.31 399.175L380.314 399.177L380.74 398.273ZM374.331 393.591L373.578 394.249L373.583 394.255L374.331 393.591ZM370.513 387.818L371.424 387.405L371.158 386.818H370.513V387.818ZM369.649 387.818V386.818H368.649V387.818H369.649ZM369.649 399V400H370.649V399H369.649ZM376.24 382.182L375.62 382.966L375.626 382.971L376.24 382.182ZM392.195 382.136L392.815 382.92L392.822 382.915L392.195 382.136ZM397.149 374.864L396.211 374.518L396.209 374.523L397.149 374.864ZM397.195 353.455L398.134 353.111L398.134 353.111L397.195 353.455ZM392.24 346.273L392.861 345.489L392.861 345.489L392.24 346.273ZM376.195 346.182L375.588 345.387L375.582 345.391L376.195 346.182ZM371.24 353.273L370.304 352.921L370.304 352.921L371.24 353.273ZM351.558 399V305.909H349.558V399H351.558ZM350.558 306.909H369.922V304.909H350.558V306.909ZM368.922 305.909V340.909H370.922V305.909H368.922ZM369.922 341.909H370.513V339.909H369.922V341.909ZM371.424 341.321C372.229 339.539 373.404 337.705 374.965 335.82L373.425 334.544C371.774 336.538 370.494 338.522 369.602 340.498L371.424 341.321ZM374.964 335.821C376.5 333.971 378.506 332.417 381.006 331.167L380.111 329.378C377.398 330.735 375.162 332.453 373.426 334.543L374.964 335.821ZM381.01 331.165C383.468 329.922 386.576 329.273 390.377 329.273V327.273C386.359 327.273 382.921 327.957 380.107 329.38L381.01 331.165ZM390.377 329.273C395.282 329.273 399.797 330.555 403.941 333.123L404.994 331.423C400.532 328.657 395.653 327.273 390.377 327.273V329.273ZM403.945 333.125C408.058 335.645 411.378 339.471 413.885 344.662L415.686 343.792C413.042 338.317 409.483 334.173 404.99 331.42L403.945 333.125ZM413.886 344.664C416.377 349.791 417.649 356.282 417.649 364.182H419.649C419.649 356.082 418.346 349.269 415.685 343.79L413.886 344.664ZM417.649 364.182C417.649 371.867 416.408 378.289 413.971 383.485L415.782 384.334C418.376 378.802 419.649 372.072 419.649 364.182H417.649ZM413.97 383.487C411.553 388.675 408.276 392.563 404.155 395.204L405.234 396.887C409.72 394.013 413.231 389.81 415.783 384.331L413.97 383.487ZM404.157 395.203C400.052 397.822 395.453 399.136 390.331 399.136V401.136C395.816 401.136 400.792 399.723 405.233 396.888L404.157 395.203ZM390.331 399.136C386.68 399.136 383.637 398.532 381.167 397.368L380.314 399.177C383.116 400.498 386.467 401.136 390.331 401.136V399.136ZM381.171 397.37C378.667 396.177 376.645 394.692 375.079 392.927L373.583 394.255C375.351 396.247 377.601 397.884 380.31 399.175L381.171 397.37ZM375.084 392.933C373.47 391.084 372.256 389.241 371.424 387.405L369.602 388.231C370.528 390.274 371.859 392.279 373.578 394.249L375.084 392.933ZM370.513 386.818H369.649V388.818H370.513V386.818ZM368.649 387.818V399H370.649V387.818H368.649ZM369.649 398H350.558V400H369.649V398ZM368.513 364.091C368.513 368.332 369.101 372.076 370.303 375.304L372.177 374.605C371.077 371.651 370.513 368.153 370.513 364.091H368.513ZM370.303 375.304C371.506 378.534 373.27 381.106 375.62 382.966L376.861 381.398C374.847 379.803 373.277 377.557 372.177 374.605L370.303 375.304ZM375.626 382.971C378.006 384.822 380.881 385.727 384.195 385.727V383.727C381.266 383.727 378.838 382.935 376.854 381.392L375.626 382.971ZM384.195 385.727C387.54 385.727 390.434 384.806 392.815 382.92L391.574 381.352C389.592 382.921 387.152 383.727 384.195 383.727V385.727ZM392.822 382.915C395.169 381.024 396.917 378.437 398.089 375.205L396.209 374.523C395.139 377.472 393.584 379.733 391.567 381.358L392.822 382.915ZM398.088 375.21C399.288 371.956 399.877 368.244 399.877 364.091H397.877C397.877 368.059 397.314 371.529 396.211 374.518L398.088 375.21ZM399.877 364.091C399.877 359.97 399.304 356.304 398.134 353.111L396.256 353.799C397.328 356.726 397.877 360.151 397.877 364.091H399.877ZM398.134 353.111C396.96 349.907 395.211 347.349 392.861 345.489L391.62 347.057C393.633 348.651 395.187 350.881 396.256 353.799L398.134 353.111ZM392.861 345.489C390.478 343.602 387.568 342.682 384.195 342.682V344.682C387.185 344.682 389.639 345.489 391.62 347.057L392.861 345.489ZM384.195 342.682C380.858 342.682 377.969 343.568 375.588 345.387L376.802 346.976C378.784 345.462 381.229 344.682 384.195 344.682V342.682ZM375.582 345.391C373.257 347.192 371.508 349.722 370.304 352.921L372.176 353.625C373.276 350.702 374.829 348.505 376.807 346.972L375.582 345.391ZM370.304 352.921C369.101 356.12 368.513 359.85 368.513 364.091H370.513C370.513 360.029 371.077 356.547 372.176 353.625L370.304 352.921ZM452.213 305.909H453.213V304.909H452.213V305.909ZM452.213 399V400H453.213V399H452.213ZM432.85 399H431.85V400H432.85V399ZM432.85 305.909V304.909H431.85V305.909H432.85ZM451.213 305.909V399H453.213V305.909H451.213ZM452.213 398H432.85V400H452.213V398ZM433.85 399V305.909H431.85V399H433.85ZM432.85 306.909H452.213V304.909H432.85V306.909ZM482.277 396L481.782 396.869L481.788 396.872L482.277 396ZM470.368 383.545L469.48 384.005L469.481 384.007L470.368 383.545ZM470.368 345.5L469.479 345.043L469.479 345.043L470.368 345.5ZM482.141 332.818L481.63 331.959L481.627 331.96L482.141 332.818ZM512.914 330.5L512.564 331.437L512.572 331.44L512.914 330.5ZM523.368 337.091L522.665 337.802L522.669 337.805L523.368 337.091ZM530.368 348.182L529.432 348.532L529.433 348.534L530.368 348.182ZM532.868 369.045V370.045H533.868V369.045H532.868ZM473.914 369.045H472.914V370.045H473.914V369.045ZM473.914 357.045V356.045H472.914V357.045H473.914ZM514.641 357.045V358.045H515.641V357.045H514.641ZM512.823 349.636L511.952 350.127L511.952 350.127L512.823 349.636ZM507.777 344.591L507.272 345.454L507.279 345.458L507.287 345.462L507.777 344.591ZM492.55 344.773L493.061 345.632L493.065 345.63L492.55 344.773ZM487.277 350.182L488.147 350.675L488.15 350.67L487.277 350.182ZM485.323 357.682L484.323 357.671V357.682H485.323ZM487.232 378.045L486.34 378.497L486.344 378.505L487.232 378.045ZM507.05 385L506.729 384.053L506.729 384.053L507.05 385ZM511.641 382.273L510.951 381.549L510.951 381.549L511.641 382.273ZM514.55 377.818L514.616 376.82L513.878 376.772L513.615 377.464L514.55 377.818ZM532.459 379L533.438 379.207L533.676 378.078L532.525 378.002L532.459 379ZM526.868 390.273L526.117 389.613L526.116 389.614L526.868 390.273ZM516.05 397.727L516.422 398.656L516.425 398.654L516.05 397.727ZM500.823 399.364C493.777 399.364 487.771 397.937 482.767 395.128L481.788 396.872C487.148 399.881 493.505 401.364 500.823 401.364V399.364ZM482.773 395.131C477.792 392.289 473.957 388.281 471.256 383.084L469.481 384.007C472.356 389.537 476.46 393.832 481.782 396.869L482.773 395.131ZM471.257 383.086C468.556 377.861 467.187 371.647 467.187 364.409H465.187C465.187 371.899 466.605 378.442 469.48 384.005L471.257 383.086ZM467.187 364.409C467.187 357.358 468.554 351.217 471.258 345.957L469.479 345.043C466.607 350.632 465.187 357.096 465.187 364.409H467.187ZM471.258 345.957C473.963 340.693 477.76 336.607 482.655 333.676L481.627 331.96C476.401 335.09 472.349 339.459 469.479 345.043L471.258 345.957ZM482.653 333.677C487.566 330.753 493.353 329.273 500.05 329.273V327.273C493.05 327.273 486.898 328.823 481.63 331.959L482.653 333.677ZM500.05 329.273C504.547 329.273 508.715 329.997 512.564 331.437L513.264 329.563C509.173 328.033 504.766 327.273 500.05 327.273V329.273ZM512.572 331.44C516.439 332.846 519.8 334.966 522.665 337.802L524.072 336.38C520.998 333.337 517.389 331.063 513.256 329.56L512.572 331.44ZM522.669 337.805C525.551 340.629 527.81 344.197 529.432 348.532L531.305 347.831C529.594 343.258 527.186 339.431 524.068 336.377L522.669 337.805ZM529.433 348.534C531.048 352.821 531.868 357.879 531.868 363.727H533.868C533.868 357.697 533.023 352.391 531.304 347.829L529.433 348.534ZM531.868 363.727V369.045H533.868V363.727H531.868ZM532.868 368.045H473.914V370.045H532.868V368.045ZM474.914 369.045V357.045H472.914V369.045H474.914ZM473.914 358.045H514.641V356.045H473.914V358.045ZM515.641 357.045C515.641 354.108 515.001 351.465 513.694 349.146L511.952 350.127C513.069 352.11 513.641 354.407 513.641 357.045H515.641ZM513.694 349.146C512.392 346.835 510.579 345.021 508.268 343.72L507.287 345.462C509.279 346.585 510.829 348.135 511.952 350.127L513.694 349.146ZM508.283 343.728C505.987 342.383 503.338 341.727 500.368 341.727V343.727C503.035 343.727 505.325 344.314 507.272 345.454L508.283 343.728ZM500.368 341.727C497.268 341.727 494.48 342.448 492.036 343.915L493.065 345.63C495.165 344.37 497.59 343.727 500.368 343.727V341.727ZM492.039 343.913C489.646 345.336 487.764 347.267 486.405 349.693L488.15 350.67C489.337 348.551 490.97 346.876 493.061 345.632L492.039 343.913ZM486.408 349.688C485.046 352.088 484.355 354.756 484.323 357.671L486.323 357.693C486.351 355.092 486.964 352.76 488.147 350.675L486.408 349.688ZM484.323 357.682V369.091H486.323V357.682H484.323ZM484.323 369.091C484.323 372.668 484.982 375.814 486.34 378.497L488.124 377.594C486.937 375.247 486.323 372.423 486.323 369.091H484.323ZM486.344 378.505C487.732 381.184 489.697 383.267 492.232 384.73L493.232 382.997C491.04 381.733 489.339 379.938 488.12 377.585L486.344 378.505ZM492.232 384.73C494.774 386.196 497.756 386.909 501.141 386.909V384.909C498.041 384.909 495.417 384.258 493.232 382.997L492.232 384.73ZM501.141 386.909C503.387 386.909 505.467 386.593 507.371 385.947L506.729 384.053C505.058 384.619 503.198 384.909 501.141 384.909V386.909ZM507.371 385.947C509.286 385.298 510.945 384.316 512.331 382.997L510.951 381.549C509.792 382.653 508.39 383.49 506.729 384.053L507.371 385.947ZM512.331 382.997C513.719 381.674 514.769 380.06 515.485 378.173L513.615 377.464C512.998 379.091 512.108 380.447 510.951 381.549L512.331 382.997ZM514.484 378.816L532.393 379.998L532.525 378.002L514.616 376.82L514.484 378.816ZM531.481 378.793C530.606 382.934 528.818 386.534 526.117 389.613L527.62 390.932C530.555 387.587 532.494 383.673 533.438 379.207L531.481 378.793ZM526.116 389.614C523.444 392.664 519.973 395.063 515.676 396.8L516.425 398.654C520.975 396.815 524.717 394.246 527.621 390.932L526.116 389.614ZM515.679 396.799C511.426 398.5 506.48 399.364 500.823 399.364V401.364C506.681 401.364 511.887 400.47 516.422 398.656L515.679 396.799Z" fill="black"/>
</g>
<defs>
<filter id="filter0_d_2_27" x="456.864" y="429.182" width="132.546" height="147.318" filterUnits="userSpaceOnUse" color-interpolation-filters="sRGB">
<feFlood flood-opacity="0" result="BackgroundImageFix"/>
<feColorMatrix in="SourceAlpha" type="matrix" values="0 0 0 0 0 0 0 0 0 0 0 0 0 0 0 0 0 0 127 0" result="hardAlpha"/>
<feOffset dy="4"/>
<feGaussianBlur stdDeviation="2"/>
<feComposite in2="hardAlpha" operator="out"/>
<feColorMatrix type="matrix" values="0 0 0 0 0 0 0 0 0 0 0 0 0 0 0 0 0 0 0.25 0"/>
<feBlend mode="normal" in2="BackgroundImageFix" result="effect1_dropShadow_2_27"/>
<feBlend mode="normal" in="SourceGraphic" in2="effect1_dropShadow_2_27" result="shape"/>
</filter>
<filter id="filter1_d_2_27" x="9.63647" y="43.1818" width="132.531" height="147.318" filterUnits="userSpaceOnUse" color-interpolation-filters="sRGB">
<feFlood flood-opacity="0" result="BackgroundImageFix"/>
<feColorMatrix in="SourceAlpha" type="matrix" values="0 0 0 0 0 0 0 0 0 0 0 0 0 0 0 0 0 0 127 0" result="hardAlpha"/>
<feOffset dy="4"/>
<feGaussianBlur stdDeviation="2"/>
<feComposite in2="hardAlpha" operator="out"/>
<feColorMatrix type="matrix" values="0 0 0 0 0 0 0 0 0 0 0 0 0 0 0 0 0 0 0.25 0"/>
<feBlend mode="normal" in2="BackgroundImageFix" result="effect1_dropShadow_2_27"/>
<feBlend mode="normal" in="SourceGraphic" in2="effect1_dropShadow_2_27" result="shape"/>
</filter>
<filter id="filter2_d_2_27" x="67.3135" y="145.591" width="469.555" height="262.773" filterUnits="userSpaceOnUse" color-interpolation-filters="sRGB">
<feFlood flood-opacity="0" result="BackgroundImageFix"/>
<feColorMatrix in="SourceAlpha" type="matrix" values="0 0 0 0 0 0 0 0 0 0 0 0 0 0 0 0 0 0 127 0" result="hardAlpha"/>
<feOffset dy="4"/>
<feGaussianBlur stdDeviation="2"/>
<feComposite in2="hardAlpha" operator="out"/>
<feColorMatrix type="matrix" values="0 0 0 0 0 0 0 0 0 0 0 0 0 0 0 0 0 0 0.25 0"/>
<feBlend mode="normal" in2="BackgroundImageFix" result="effect1_dropShadow_2_27"/>
<feBlend mode="normal" in="SourceGraphic" in2="effect1_dropShadow_2_27" result="shape"/>
</filter>
</defs>
</svg>
